<svg id="Layer_1" data-name="Layer 1" xmlns="http://www.w3.org/2000/svg" viewBox="0 0 100 100"><defs><style>.cls-1{fill:#f6b6ac;}.cls-2{fill:#85183e;}.cls-3{fill:#e1251b;}.cls-4{fill:#fefefe;}</style></defs><title>cuando</title><circle class="cls-1" cx="52.04" cy="60.74" r="18.67"/><path class="cls-2" d="M49.29,78.25a19.4,19.4,0,1,1,19.4-19.4.74.74,0,1,1-1.47,0A17.93,17.93,0,1,0,49.29,76.79,17.77,17.77,0,0,0,57.15,75a.73.73,0,1,1,.64,1.32A19.19,19.19,0,0,1,49.29,78.25Z"/><path class="cls-1" d="M85.07,33s.19,1.4-1,1.4H21.56c-1.15,0-1.18-1.4-1.18-1.4V28.25c0-4.49,1.27-6.68,5.59-6.68H79.35c3.66,0,5.72,1.79,5.72,5.47"/><path class="cls-3" d="M74.24,90.11H22.93a8,8,0,0,1-8-8V24.64a8,8,0,0,1,8-8H74.24a8,8,0,0,1,8,8V48a1.31,1.31,0,1,1-2.62,0V24.64a5.38,5.38,0,0,0-5.37-5.37H22.93a5.39,5.39,0,0,0-5.39,5.37V82.12a5.39,5.39,0,0,0,5.39,5.38H74.24a5.38,5.38,0,0,0,5.37-5.38V65.73a1.31,1.31,0,0,1,2.62,0V82.12A8,8,0,0,1,74.24,90.11Z"/><path class="cls-3" d="M80.91,61.79a1.3,1.3,0,0,1-1.31-1.31V53.16a1.31,1.31,0,1,1,2.61,0v7.32A1.3,1.3,0,0,1,80.91,61.79Z"/><path class="cls-3" d="M80.91,31.45H16.23a.65.65,0,0,1-.65-.65.66.66,0,0,1,.65-.66H80.91a.66.66,0,0,1,.65.66A.65.65,0,0,1,80.91,31.45Z"/><path class="cls-2" d="M36,24.88a.66.66,0,0,1-.66-.66V10.54a.66.66,0,0,1,1.31,0V24.22A.66.66,0,0,1,36,24.88Z"/><path class="cls-2" d="M61.16,24.88a.66.66,0,0,1-.65-.66V14.37a.65.65,0,1,1,1.3,0v9.85A.66.66,0,0,1,61.16,24.88Z"/><path class="cls-2" d="M61.16,12.81a.65.65,0,0,1-.65-.65V10.54a.65.65,0,1,1,1.3,0v1.62A.65.65,0,0,1,61.16,12.81Z"/><path class="cls-4" d="M44.05,67.41a1.75,1.75,0,0,1-.46,0,2.14,2.14,0,0,1-1.49-1.14l-2.78-5.37a2.19,2.19,0,1,1,3.9-2l1.55,3,11.17-8.92a2.2,2.2,0,0,1,2.74,3.43L45.41,66.93A2.13,2.13,0,0,1,44.05,67.41Z"/></svg>