<svg id="Layer_2" data-name="Layer 2" xmlns="http://www.w3.org/2000/svg" viewBox="0 0 100 100"><defs><style>.cls-1{fill:#f8afa4;}.cls-2{fill:#801644;}.cls-3{fill:#e1251b;}.cls-4{fill:#fff;}</style></defs><title>donde</title><path class="cls-1" d="M61.77,72.32c0,3.05-5.72,5.52-12.78,5.52S36.2,75.37,36.2,72.32,41.92,66.79,49,66.79,61.77,69.26,61.77,72.32Z"/><path class="cls-2" d="M35.74,77.15a.65.65,0,0,1-.58-.94l7.61-15a.66.66,0,0,1,.88-.29.64.64,0,0,1,.28.87L36.32,76.79A.64.64,0,0,1,35.74,77.15Z"/><path class="cls-2" d="M32.08,84.4a.59.59,0,0,1-.29-.07.65.65,0,0,1-.29-.87l2.15-4.25a.65.65,0,0,1,.87-.29.66.66,0,0,1,.29.88L32.66,84A.64.64,0,0,1,32.08,84.4Z"/><path class="cls-2" d="M22,84.4a.63.63,0,0,1-.37-.12.66.66,0,0,1-.16-.91l2.75-3.88a.65.65,0,0,1,.91-.15.64.64,0,0,1,.15.9l-2.75,3.89A.65.65,0,0,1,22,84.4Z"/><path class="cls-2" d="M56.67,66.67a.64.64,0,0,1-.59-.38L54,61.72a.65.65,0,0,1,.31-.86.66.66,0,0,1,.87.32l2.13,4.56a.66.66,0,0,1-.32.87A.63.63,0,0,1,56.67,66.67Z"/><path class="cls-2" d="M65.39,66.43a.65.65,0,0,1-.56-.31l-2.64-4.29a.65.65,0,1,1,1.11-.68l2.64,4.29a.65.65,0,0,1-.21.89A.63.63,0,0,1,65.39,66.43Z"/><path class="cls-2" d="M64.94,84.4a.65.65,0,0,1-.59-.38L57.54,69.41a.64.64,0,0,1,.31-.86.65.65,0,0,1,.86.31l6.82,14.62a.65.65,0,0,1-.31.86A.67.67,0,0,1,64.94,84.4Z"/><path class="cls-3" d="M88.39,84.4H11.61c-1,0-1.4-.49-1.52-.78s-.23-.9.5-1.64l6.15-6.27a.65.65,0,0,1,.93.91l-6.15,6.27a.8.8,0,0,0-.16.19l.25,0H88.39l.25,0a.8.8,0,0,0-.16-.19L69.19,63.22a4.39,4.39,0,0,0-2.66-1.12H33.47a4.42,4.42,0,0,0-2.67,1.12L25.17,69a.65.65,0,0,1-.93-.91l5.64-5.75a5.65,5.65,0,0,1,3.59-1.51H66.53a5.67,5.67,0,0,1,3.59,1.51L89.41,82c.73.74.63,1.34.5,1.63S89.43,84.4,88.39,84.4Z"/><path class="cls-3" d="M19.88,74.08a.63.63,0,0,1-.45-.19.65.65,0,0,1,0-.92L22,70.35a.65.65,0,0,1,.93.91l-2.57,2.62A.67.67,0,0,1,19.88,74.08Z"/><path class="cls-1" d="M67.5,37.78a16.53,16.53,0,1,0-32.19,4.15L48.86,71.44,65.94,43.82A16.48,16.48,0,0,0,67.5,37.78Z"/><path class="cls-3" d="M49,73.62h0a1.32,1.32,0,0,1-1.15-.69L31.26,42l-.06-.13a19.16,19.16,0,1,1,35.58,0,.83.83,0,0,1-.07.13L50.12,72.93A1.29,1.29,0,0,1,49,73.62ZM33.59,40.84,49,69.57,64.39,40.84a16.57,16.57,0,1,0-30.8,0Z"/><path class="cls-2" d="M49,41.56a6.8,6.8,0,1,1,6.79-6.8A6.76,6.76,0,0,1,49,41.56Zm0-12.29a5.5,5.5,0,1,0,3.88,1.61A5.42,5.42,0,0,0,49,29.27Z"/><path class="cls-4" d="M54.7,34.76A5.72,5.72,0,1,1,49,29.05,5.72,5.72,0,0,1,54.7,34.76Z"/></svg>