<svg id="Layer_1" data-name="Layer 1" xmlns="http://www.w3.org/2000/svg" viewBox="0 0 250 100"><defs><style>.cls-1{fill:#fff;}.cls-2{fill:#f6b6ac;}.cls-3{fill:#e1251b;}.cls-4{fill:#f8afa4;}.cls-5{fill:#801644;}</style></defs><title>header-donde</title><rect class="cls-1" x="-12" y="-6.5" width="268" height="113"/><path class="cls-2" d="M114.79,39.93l1.78-.41.2,2.74-.56.18c-1.74.55-2.39,1.06-2.39,1.92s.54,1.19,1.53,1.19a6.2,6.2,0,0,0,3.4-1.28l.38,2.52A7.2,7.2,0,0,1,115,48.05c-2.54,0-4-1.27-4-3.45s1.31-3.28,3.8-4.07Zm2.45-4.54v3.1h-2.92v-3.1Z"/><path class="cls-2" d="M125.09,47.82h-4.36V35.39H125c4.32,0,6.59,2.51,6.59,6.2S129.28,47.82,125.09,47.82Zm-.17-10h-1.11v7.63h1.11c2.2,0,3.57-1.15,3.57-3.81S127,37.79,124.92,37.79Z"/><path class="cls-2" d="M138.87,48.05c-3.56,0-5.9-2.59-5.9-6.43s2.34-6.46,5.94-6.46,5.92,2.59,5.92,6.43S142.49,48.05,138.87,48.05Zm0-10.48c-1.8,0-2.84,1.57-2.84,4s1.06,4,2.84,4,2.85-1.57,2.85-4S140.69,37.57,138.89,37.57Zm.69-3.26h-1.73l1.08-2.71,3.29.54Z"/><path class="cls-2" d="M154.41,47.82l-4.9-7.44v7.44h-2.86V35.39h3l4.57,7v-7h2.86V47.82Z"/><path class="cls-2" d="M163.69,47.82h-4.35V35.39h4.26c4.33,0,6.59,2.51,6.59,6.2S167.89,47.82,163.69,47.82Zm-.16-10h-1.11v7.63h1.11c2.2,0,3.57-1.15,3.57-3.81S165.64,37.79,163.53,37.79Z"/><path class="cls-2" d="M172,47.82V35.39h7.74v2.47h-4.72v2.27h3.6l.4,2.54h-4v2.68h4.88v2.47Z"/><path class="cls-2" d="M185.33,43.28l-1.78.42-.2-2.74.56-.18c1.78-.52,2.39-1.06,2.39-1.93s-.54-1.19-1.53-1.19a6.2,6.2,0,0,0-3.4,1.28L181,36.42a7.2,7.2,0,0,1,4.18-1.26c2.54,0,4,1.28,4,3.46s-1.31,3.27-3.8,4.07Zm-2.45,4.54v-3.1h2.92v3.1Z"/><path class="cls-3" d="M116.79,65.82V62h-4.18v3.81h-1.13V57.54h1.13V61h4.18V57.54h1.13v8.28Z"/><path class="cls-3" d="M122.06,65.94c-1.52,0-2.62-1.09-2.62-3s1.1-3,2.62-3a2.67,2.67,0,0,1,2.67,3A2.66,2.66,0,0,1,122.06,65.94Zm0-5.06c-1,0-1.54.89-1.54,2.08s.54,2.09,1.54,2.09,1.59-.89,1.59-2.09S123.1,60.88,122.06,60.88Z"/><path class="cls-3" d="M131.53,65.82h-.84l-1.32-4.33-1.3,4.33h-.83l-1.85-5.64,1-.17,1.26,4.24,1.27-4.15h.9l1.27,4.15,1.22-4.15h1Z"/><path class="cls-3" d="M137.87,65.82l-.12-.77a2.7,2.7,0,0,1-2,.89,1.53,1.53,0,0,1-1.68-1.6c0-1.42,1.23-2,3.61-2.24v-.24c0-.72-.43-1-1.09-1a5.07,5.07,0,0,0-2,.49l-.14-.92a5.45,5.45,0,0,1,2.22-.48c1.39,0,2.06.56,2.06,1.83v4Zm-.21-2.9c-2.11.2-2.55.78-2.55,1.36a.75.75,0,0,0,.85.77,2.43,2.43,0,0,0,1.7-.8Z"/><path class="cls-3" d="M141.46,62.44v3.38h-1.07V60.1h.85l.18,1.16a2.54,2.54,0,0,1,2-1.28l.17,1A2.58,2.58,0,0,0,141.46,62.44Z"/><path class="cls-3" d="M148.39,65.82l-.13-.83a2.36,2.36,0,0,1-1.86,1c-1.23,0-2.25-.9-2.25-2.82,0-2.09,1.19-3.09,2.59-3.09a3.92,3.92,0,0,1,1.44.25v-3l1.06-.17v8.66Zm-.21-4.57a2.72,2.72,0,0,0-1.41-.32c-.9,0-1.55.73-1.55,2.14,0,1.26.57,1.92,1.34,1.92a2,2,0,0,0,1.62-1Z"/><path class="cls-3" d="M153.9,65.9a4,4,0,0,1-.74-.07l-.17-1a3.46,3.46,0,0,0,.92.11c.77,0,1.2-.36,1.2-1.24V57.54h1.13v6.24C156.24,65.26,155.3,65.9,153.9,65.9Z"/><path class="cls-3" d="M161.6,65.82v-3.9c0-.59-.25-1-.87-1a2.45,2.45,0,0,0-1.66.92v4H158V57.33l1.06-.17v3.69a3,3,0,0,1,2-.87,1.51,1.51,0,0,1,1.65,1.68v4.16Z"/><path class="cls-3" d="M166.63,65.94c-1.52,0-2.63-1.09-2.63-3s1.11-3,2.63-3a2.66,2.66,0,0,1,2.66,3C169.29,64.85,168.17,65.94,166.63,65.94Zm0-5.06c-1,0-1.55.89-1.55,2.08s.54,2.09,1.55,2.09,1.58-.89,1.58-2.09S167.66,60.88,166.63,60.88Z"/><path class="cls-3" d="M174.25,65.82v-3.9c0-.59-.25-1-.87-1a2.45,2.45,0,0,0-1.66.92v4h-1.07V60.1h.85l.14.83a3,3,0,0,1,2-1,1.52,1.52,0,0,1,1.66,1.68v4.16Z"/><path class="cls-3" d="M178.72,65.94a4.63,4.63,0,0,1-2.09-.54l.16-1a3.57,3.57,0,0,0,2,.66c.73,0,1.16-.27,1.16-.76s-.32-.71-1.35-1c-1.35-.33-1.88-.74-1.88-1.76s.76-1.58,2-1.58a4.6,4.6,0,0,1,1.88.38l-.16,1a3.65,3.65,0,0,0-1.74-.49c-.65,0-1,.25-1,.66s.29.6,1.19.83c1.41.35,2.05.76,2.05,1.85S180.19,65.94,178.72,65.94Z"/><path class="cls-3" d="M184.58,65.94c-1.52,0-2.62-1.09-2.62-3s1.1-3,2.62-3a2.67,2.67,0,0,1,2.67,3A2.66,2.66,0,0,1,184.58,65.94Zm0-5.06c-1,0-1.54.89-1.54,2.08s.54,2.09,1.54,2.09,1.59-.89,1.59-2.09S185.62,60.88,184.58,60.88Z"/><path class="cls-3" d="M192.2,65.82v-3.9c0-.59-.25-1-.87-1a2.45,2.45,0,0,0-1.66.92v4h-1.06V60.1h.85l.13.83a3,3,0,0,1,2-1,1.51,1.51,0,0,1,1.65,1.68v4.16Z"/><path class="cls-3" d="M197.72,65.82V57.54h1.13v7.25h3l.15,1Z"/><path class="cls-3" d="M207,65.82l-.13-.83a3.06,3.06,0,0,1-2,1,1.52,1.52,0,0,1-1.66-1.68V60.1h1.07V64c0,.58.25,1,.87,1a2.45,2.45,0,0,0,1.66-.92v-4h1.07v5.72Z"/><path class="cls-3" d="M209.14,68a2.23,2.23,0,0,1-.5,0l-.15-.94a2.57,2.57,0,0,0,.5,0,.55.55,0,0,0,.6-.63V60.1h1.07v6.44A1.34,1.34,0,0,1,209.14,68Zm1-9a.68.68,0,0,1-.68-.67.69.69,0,0,1,.68-.69.68.68,0,0,1,.67.69A.67.67,0,0,1,210.13,59Z"/><path class="cls-3" d="M215.89,65.82l-.12-.77a2.7,2.7,0,0,1-2,.89,1.53,1.53,0,0,1-1.68-1.6c0-1.42,1.22-2,3.61-2.24v-.24c0-.72-.44-1-1.09-1a5,5,0,0,0-2,.49l-.15-.92a5.49,5.49,0,0,1,2.22-.48c1.39,0,2.06.56,2.06,1.83v4Zm-.2-2.9c-2.11.2-2.56.78-2.56,1.36a.75.75,0,0,0,.85.77,2.43,2.43,0,0,0,1.71-.8Z"/><path class="cls-3" d="M222,65.82v-3.9c0-.59-.25-1-.88-1a2.45,2.45,0,0,0-1.65.92v4h-1.07V60.1h.85l.14.83a3,3,0,0,1,2-1,1.52,1.52,0,0,1,1.66,1.68v4.16Z"/><path class="cls-4" d="M71.77,72.32c0,3.05-5.72,5.52-12.78,5.52S46.2,75.37,46.2,72.32,51.92,66.79,59,66.79,71.77,69.26,71.77,72.32Z"/><path class="cls-5" d="M45.74,77.15a.65.65,0,0,1-.58-.94l7.61-15a.66.66,0,0,1,.88-.29.64.64,0,0,1,.28.87L46.32,76.79A.64.64,0,0,1,45.74,77.15Z"/><path class="cls-5" d="M42.08,84.4a.59.59,0,0,1-.29-.07.65.65,0,0,1-.29-.87l2.15-4.25a.65.65,0,0,1,.87-.29.66.66,0,0,1,.29.88L42.66,84A.64.64,0,0,1,42.08,84.4Z"/><path class="cls-5" d="M32,84.4a.63.63,0,0,1-.37-.12.66.66,0,0,1-.16-.91l2.75-3.88a.65.65,0,0,1,.91-.15.64.64,0,0,1,.15.9l-2.75,3.89A.65.65,0,0,1,32,84.4Z"/><path class="cls-5" d="M66.67,66.67a.64.64,0,0,1-.59-.38L64,61.72a.65.65,0,0,1,.31-.86.66.66,0,0,1,.87.32l2.13,4.56a.66.66,0,0,1-.32.87A.63.63,0,0,1,66.67,66.67Z"/><path class="cls-5" d="M75.39,66.43a.65.65,0,0,1-.56-.31l-2.64-4.29a.65.65,0,1,1,1.11-.68l2.64,4.29a.65.65,0,0,1-.21.89A.63.63,0,0,1,75.39,66.43Z"/><path class="cls-5" d="M74.94,84.4a.65.65,0,0,1-.59-.38L67.54,69.41a.64.64,0,0,1,.31-.86.65.65,0,0,1,.86.31l6.82,14.62a.65.65,0,0,1-.31.86A.67.67,0,0,1,74.94,84.4Z"/><path class="cls-3" d="M98.39,84.4H21.61c-1,0-1.4-.49-1.52-.78s-.23-.9.5-1.64l6.15-6.27a.65.65,0,0,1,.93.91l-6.15,6.27a.8.8,0,0,0-.16.19l.25,0H98.39l.25,0a.8.8,0,0,0-.16-.19L79.19,63.22a4.39,4.39,0,0,0-2.66-1.12H43.47a4.42,4.42,0,0,0-2.67,1.12L35.17,69a.65.65,0,0,1-.93-.91l5.64-5.75a5.65,5.65,0,0,1,3.59-1.51H76.53a5.67,5.67,0,0,1,3.59,1.51L99.41,82c.73.74.63,1.34.5,1.63S99.43,84.4,98.39,84.4Z"/><path class="cls-3" d="M29.88,74.08a.63.63,0,0,1-.45-.19.65.65,0,0,1,0-.92L32,70.35a.65.65,0,0,1,.93.91l-2.57,2.62A.67.67,0,0,1,29.88,74.08Z"/><path class="cls-4" d="M77.5,37.78a16.53,16.53,0,1,0-32.19,4.15L58.86,71.44,75.94,43.82A16.48,16.48,0,0,0,77.5,37.78Z"/><path class="cls-3" d="M59,73.62h0a1.32,1.32,0,0,1-1.15-.69L41.26,42l-.06-.13a19.16,19.16,0,1,1,35.58,0,.83.83,0,0,1-.07.13L60.12,72.93A1.29,1.29,0,0,1,59,73.62ZM43.59,40.84,59,69.57,74.39,40.84a16.57,16.57,0,1,0-30.8,0Z"/><path class="cls-5" d="M59,41.56a6.8,6.8,0,1,1,6.79-6.8A6.76,6.76,0,0,1,59,41.56Zm0-12.29a5.5,5.5,0,1,0,3.88,1.61A5.42,5.42,0,0,0,59,29.27Z"/><path class="cls-1" d="M64.7,34.76A5.72,5.72,0,1,1,59,29.05,5.72,5.72,0,0,1,64.7,34.76Z"/></svg>