<svg id="Layer_1" data-name="Layer 1" xmlns="http://www.w3.org/2000/svg" viewBox="0 0 250 100"><defs><style>.cls-1{fill:#fff;}.cls-2{fill:#f6b6ac;}.cls-3{fill:#85183e;}.cls-4{fill:#e1251b;}.cls-5{fill:#fefefe;}</style></defs><title>header-cuando</title><rect class="cls-1" x="-12" y="-7.5" width="268" height="113"/><circle class="cls-2" cx="57.12" cy="60.74" r="18.67"/><path class="cls-3" d="M54.37,78.25a19.4,19.4,0,1,1,19.4-19.4.74.74,0,1,1-1.47,0A17.92,17.92,0,1,0,62.23,75a.73.73,0,1,1,.64,1.32A19.19,19.19,0,0,1,54.37,78.25Z"/><path class="cls-2" d="M90.14,33s.2,1.4-1,1.4H26.63c-1.14,0-1.18-1.4-1.18-1.4V28.25c0-4.49,1.28-6.68,5.6-6.68H84.43c3.66,0,5.71,1.79,5.71,5.47"/><path class="cls-4" d="M79.32,90.11H28a8,8,0,0,1-8-8V24.64a8,8,0,0,1,8-8H79.32a8,8,0,0,1,8,8V48a1.31,1.31,0,1,1-2.62,0V24.64a5.38,5.38,0,0,0-5.37-5.37H28a5.39,5.39,0,0,0-5.39,5.37V82.12A5.39,5.39,0,0,0,28,87.5H79.32a5.38,5.38,0,0,0,5.37-5.38V65.73a1.31,1.31,0,0,1,2.62,0V82.12A8,8,0,0,1,79.32,90.11Z"/><path class="cls-4" d="M86,61.79a1.31,1.31,0,0,1-1.31-1.31V53.16a1.31,1.31,0,0,1,2.62,0v7.32A1.3,1.3,0,0,1,86,61.79Z"/><path class="cls-4" d="M86,31.45H21.31a.66.66,0,0,1-.66-.65.67.67,0,0,1,.66-.66H86a.67.67,0,0,1,.66.66A.66.66,0,0,1,86,31.45Z"/><path class="cls-3" d="M41.06,24.88a.66.66,0,0,1-.65-.66V10.54a.65.65,0,0,1,.65-.65.66.66,0,0,1,.66.65V24.22A.67.67,0,0,1,41.06,24.88Z"/><path class="cls-3" d="M66.24,24.88a.66.66,0,0,1-.66-.66V14.37a.66.66,0,1,1,1.31,0v9.85A.66.66,0,0,1,66.24,24.88Z"/><path class="cls-3" d="M66.24,12.81a.65.65,0,0,1-.66-.65V10.54a.66.66,0,0,1,1.31,0v1.62A.65.65,0,0,1,66.24,12.81Z"/><path class="cls-5" d="M49.12,67.41a1.85,1.85,0,0,1-.46,0,2.16,2.16,0,0,1-1.49-1.14L44.4,60.85a2.19,2.19,0,1,1,3.9-2l1.54,3L61,52.91a2.2,2.2,0,1,1,2.74,3.43L50.49,66.93A2.14,2.14,0,0,1,49.12,67.41Z"/><path class="cls-2" d="M114.79,39.93l1.78-.41.2,2.74-.56.18c-1.74.55-2.39,1.06-2.39,1.92s.54,1.19,1.53,1.19a6.2,6.2,0,0,0,3.4-1.28l.38,2.52A7.2,7.2,0,0,1,115,48.05c-2.54,0-4-1.27-4-3.45s1.31-3.28,3.8-4.07Zm2.45-4.54v3.1h-2.92v-3.1Z"/><path class="cls-2" d="M126.08,48c-3.77,0-6-2.53-6-6.42s2.42-6.44,5.95-6.44a6.89,6.89,0,0,1,3.44.81L129,38.76a4.59,4.59,0,0,0-2.77-1c-1.87,0-3.1,1.43-3.1,3.86s1.39,3.85,3.26,3.85a5.73,5.73,0,0,0,2.83-.86l.4,2.52A7.15,7.15,0,0,1,126.08,48Z"/><path class="cls-2" d="M136.41,48c-3,0-5.17-1.64-5.17-5.12V35.39h3.1v7.49c0,1.61.72,2.54,2.1,2.54s2.11-.91,2.11-2.5V35.39h3.1v7.49C141.65,46.34,139.42,48,136.41,48Z"/><path class="cls-2" d="M151.94,48,151,45.24h-4.27l-.86,2.58h-3l4.46-12.48h3.39L155,47.44Zm-3.08-9.44-1.4,4.32h2.81Zm1-4h-1.73l1.08-2.71,3.29.54Z"/><path class="cls-2" d="M164.17,47.82l-4.9-7.44v7.44h-2.86V35.39h3l4.58,7v-7h2.86V47.82Z"/><path class="cls-2" d="M173.45,47.82h-4.36V35.39h4.27c4.32,0,6.59,2.51,6.59,6.2S177.65,47.82,173.45,47.82Zm-.16-10h-1.12v7.63h1.12c2.2,0,3.56-1.15,3.56-3.81S175.4,37.79,173.29,37.79Z"/><path class="cls-2" d="M187.24,48.05c-3.57,0-5.91-2.59-5.91-6.43s2.34-6.46,5.95-6.46,5.92,2.59,5.92,6.43S190.86,48.05,187.24,48.05Zm0-10.48c-1.8,0-2.85,1.57-2.85,4s1.06,4,2.85,4,2.84-1.57,2.84-4S189.06,37.57,187.26,37.57Z"/><path class="cls-2" d="M198.45,43.28l-1.78.42-.2-2.74.56-.18c1.78-.52,2.39-1.06,2.39-1.93s-.54-1.19-1.53-1.19a6.23,6.23,0,0,0-3.4,1.28l-.38-2.52a7.23,7.23,0,0,1,4.18-1.26c2.54,0,4,1.28,4,3.46s-1.32,3.27-3.8,4.07ZM196,47.82v-3.1h2.92v3.1Z"/><path class="cls-4" d="M112.54,65.82V59.58l-1.63.64-.22-1.56,2.07-1h1.79v8.12Z"/><path class="cls-4" d="M118.08,63a2.22,2.22,0,0,1-2.35-2.5,2.82,2.82,0,0,1,3-2.91c1.85,0,3.13,1.19,3.13,3.44,0,2.91-2,4.49-4.8,5l-.23-1.59c1.57-.3,2.71-.91,3.13-2A3.44,3.44,0,0,1,118.08,63Zm2-1.88c0-1.45-.56-2.07-1.32-2.07s-1.15.48-1.15,1.32.37,1.22,1.15,1.22a2.27,2.27,0,0,0,1.32-.44Z"/><path class="cls-4" d="M129.29,62.53v3.29h-1.13V62.53l-2.93-4.83,1.13-.24,2.38,4,2.31-4h1.25Z"/><path class="cls-4" d="M135.69,65.82V64.39l2.79-2.79c.54-.56.82-.94.82-1.48s-.39-.86-1.05-.86a3.69,3.69,0,0,0-2.14.83l-.24-1.71a4.63,4.63,0,0,1,2.68-.8c1.67,0,2.7.88,2.7,2.33a3.64,3.64,0,0,1-1.55,2.75l-1.62,1.58h3.07l.26,1.58Z"/><path class="cls-4" d="M145.64,66c-2,0-3.38-1.49-3.38-4.2s1.36-4.22,3.38-4.22,3.36,1.5,3.36,4.22S147.66,66,145.64,66Zm0-6.89c-.93,0-1.39,1-1.39,2.69s.46,2.68,1.39,2.68,1.38-1,1.38-2.68S146.58,59.08,145.64,59.08Z"/><path class="cls-4" d="M155.42,65.82h-2.35V57.54h2.4c2.88,0,4.36,1.71,4.36,4.13S158.27,65.82,155.42,65.82Zm.09-7.26H154.2V64.8h1.27c2,0,3.19-1,3.19-3.12A2.86,2.86,0,0,0,155.51,58.56Z"/><path class="cls-4" d="M161.51,65.82V57.54H166v1h-3.33V61h2.59l.16,1h-2.75v2.78h3.45v1Z"/><path class="cls-4" d="M178.11,65.82l-.51-6.59L175,65.86h-.85l-2.61-6.63L171,65.82h-1l.66-8.28H172l2.58,6.79,2.57-6.79h1.38l.65,8.28Z"/><path class="cls-4" d="M186.79,65.9l-1-2.56H182.4l-.94,2.48h-1.14l3.24-8.31h1.13l3.19,8.15Zm-2.69-7.05-1.32,3.49h2.65Z"/><path class="cls-4" d="M194.88,65.65l-1.14.25-2.53-3.57h-.85v3.49h-1.13V57.54h2.25c1.69,0,2.75.84,2.75,2.35a2.26,2.26,0,0,1-1.81,2.3Zm-3.45-7.11h-1.07v2.84h.95c1.1,0,1.79-.49,1.79-1.43S192.54,58.54,191.43,58.54Z"/><path class="cls-4" d="M195.65,65.82V65l4.71-6.45H196l-.16-1h5.87v.84L197,64.84h4.67l.15,1Z"/><path class="cls-4" d="M206.47,66c-2.33,0-3.8-1.72-3.8-4.28s1.5-4.3,3.82-4.3,3.81,1.73,3.81,4.28S208.81,66,206.47,66Zm0-7.55c-1.64,0-2.65,1.27-2.65,3.26s1,3.26,2.65,3.26,2.65-1.27,2.65-3.26S208.11,58.42,206.48,58.42Z"/></svg>